<svg xmlns="http://www.w3.org/2000/svg" width="452" height="390" viewBox="0 0 452 390">
<style>text{font-family:'JetBrains Mono','Cascadia Code',Consolas,'Courier New',monospace;}</style>
<rect x="1" y="1" width="450" height="388" rx="10" fill="#0a0a0a" stroke="#27272a" stroke-width="1.5"/>
<circle cx="24" cy="20" r="5.5" fill="#3f3f46"/><circle cx="42" cy="20" r="5.5" fill="#52525b"/><circle cx="60" cy="20" r="5.5" fill="#71717a"/>
<text x="226" y="24" text-anchor="middle" fill="#71717a" font-size="11" letter-spacing="3">/BIN/ARSENAL</text>
<line x1="1" y1="38" x2="451" y2="38" stroke="#27272a"/>

<rect x="24" y="88" width="126" height="46" rx="6" fill="#0a0a0a" stroke="#27272a"/>
<text x="87" y="116" text-anchor="middle" fill="#8dc63f" font-size="12">&gt; C</text>

<rect x="163" y="88" width="126" height="46" rx="6" fill="#0a0a0a" stroke="#27272a"/>
<text x="226" y="116" text-anchor="middle" fill="#8dc63f" font-size="12">&gt; TypeScript</text>

<rect x="302" y="88" width="126" height="46" rx="6" fill="#0a0a0a" stroke="#27272a"/>
<text x="365" y="116" text-anchor="middle" fill="#a1a1aa" font-size="12">&gt; JavaScript</text>

<rect x="24" y="142" width="126" height="46" rx="6" fill="#0a0a0a" stroke="#27272a"/>
<text x="87" y="170" text-anchor="middle" fill="#a1a1aa" font-size="12">&gt; Python</text>

<rect x="163" y="142" width="126" height="46" rx="6" fill="#0a0a0a" stroke="#27272a"/>
<text x="226" y="170" text-anchor="middle" fill="#a1a1aa" font-size="12">&gt; HTML · CSS</text>

<rect x="302" y="142" width="126" height="46" rx="6" fill="#0a0a0a" stroke="#27272a"/>
<text x="365" y="170" text-anchor="middle" fill="#a1a1aa" font-size="12">&gt; Git</text>

<rect x="24" y="196" width="126" height="46" rx="6" fill="#0a0a0a" stroke="#27272a"/>
<text x="87" y="224" text-anchor="middle" fill="#8dc63f" font-size="12">&gt; SQL</text>

<rect x="163" y="196" width="126" height="46" rx="6" fill="#0a0a0a" stroke="#27272a"/>
<text x="226" y="224" text-anchor="middle" fill="#a1a1aa" font-size="12">&gt; Redes</text>

<rect x="302" y="196" width="126" height="46" rx="6" fill="#0a0a0a" stroke="#27272a"/>
<text x="365" y="224" text-anchor="middle" fill="#8dc63f" font-size="12">&gt; Ciber</text>

<rect x="24" y="250" width="126" height="46" rx="6" fill="#0a0a0a" stroke="#27272a"/>
<text x="87" y="278" text-anchor="middle" fill="#a1a1aa" font-size="12">&gt; Pentest</text>

<rect x="163" y="250" width="126" height="46" rx="6" fill="#0a0a0a" stroke="#27272a"/>
<text x="226" y="278" text-anchor="middle" fill="#8dc63f" font-size="12">&gt; n8n</text>

<rect x="302" y="250" width="126" height="46" rx="6" fill="#0a0a0a" stroke="#27272a"/>
<text x="365" y="278" text-anchor="middle" fill="#a1a1aa" font-size="12">&gt; Linux</text>

<line x1="24" y1="314" x2="428" y2="314" stroke="#27272a"/>
<text x="24" y="336" fill="#52525b" font-size="11">12 directories, ∞ possibilities</text>
<text x="24" y="351" fill="#3f3f46" font-size="9">inclui código próprio, forks e contribuições externas</text>
</svg>
