<svg xmlns="http://www.w3.org/2000/svg" width="920" height="344" viewBox="0 0 920 344">
<style>text{font-family:'JetBrains Mono','Cascadia Code',Consolas,'Courier New',monospace;}.blink{animation:bl 1.2s steps(1) infinite;}@keyframes bl{50%{opacity:0;}}</style>
<defs><filter id="g" x="-60%" y="-60%" width="220%" height="220%"><feGaussianBlur stdDeviation="2.5" result="b"/><feMerge><feMergeNode in="b"/><feMergeNode in="SourceGraphic"/></feMerge></filter></defs>
<rect x="1" y="1" width="918" height="342" rx="10" fill="#0a0a0a" stroke="#27272a" stroke-width="1.5"/>
<circle cx="26" cy="20" r="5.5" fill="#3f3f46"/><circle cx="46" cy="20" r="5.5" fill="#52525b"/><circle cx="66" cy="20" r="5.5" fill="#71717a"/>
<text x="460" y="24" text-anchor="middle" fill="#71717a" font-size="11" letter-spacing="3">davi@alvarenga: ~ — bash</text>
<line x1="1" y1="38" x2="919" y2="38" stroke="#27272a"/>
<g transform="translate(46,84)">
<rect x="30" y="0" width="9" height="9" fill="#8dc63f"/>
<rect x="70" y="0" width="9" height="9" fill="#8dc63f"/>
<rect x="110" y="0" width="9" height="9" fill="#8dc63f"/>
<rect x="20" y="10" width="9" height="9" fill="#8dc63f"/>
<rect x="30" y="10" width="9" height="9" fill="#8dc63f"/>
<rect x="60" y="10" width="9" height="9" fill="#8dc63f"/>
<rect x="70" y="10" width="9" height="9" fill="#8dc63f"/>
<rect x="100" y="10" width="9" height="9" fill="#8dc63f"/>
<rect x="110" y="10" width="9" height="9" fill="#8dc63f"/>
<rect x="140" y="10" width="9" height="9" fill="#8dc63f"/>
<rect x="10" y="20" width="9" height="9" fill="#8dc63f"/>
<rect x="20" y="20" width="9" height="9" fill="#8dc63f"/>
<rect x="30" y="20" width="9" height="9" fill="#8dc63f"/>
<rect x="40" y="20" width="9" height="9" fill="#8dc63f"/>
<rect x="50" y="20" width="9" height="9" fill="#8dc63f"/>
<rect x="60" y="20" width="9" height="9" fill="#8dc63f"/>
<rect x="70" y="20" width="9" height="9" fill="#8dc63f"/>
<rect x="80" y="20" width="9" height="9" fill="#8dc63f"/>
<rect x="90" y="20" width="9" height="9" fill="#8dc63f"/>
<rect x="100" y="20" width="9" height="9" fill="#8dc63f"/>
<rect x="110" y="20" width="9" height="9" fill="#8dc63f"/>
<rect x="120" y="20" width="9" height="9" fill="#8dc63f"/>
<rect x="130" y="20" width="9" height="9" fill="#8dc63f"/>
<rect x="10" y="30" width="9" height="9" fill="#8dc63f"/>
<rect x="20" y="30" width="9" height="9" fill="#8dc63f"/>
<rect x="30" y="30" width="9" height="9" fill="#8dc63f"/>
<rect x="40" y="30" width="9" height="9" fill="#8dc63f"/>
<rect x="50" y="30" width="9" height="9" fill="#8dc63f"/>
<rect x="60" y="30" width="9" height="9" fill="#8dc63f"/>
<rect x="70" y="30" width="9" height="9" fill="#8dc63f"/>
<rect x="80" y="30" width="9" height="9" fill="#8dc63f"/>
<rect x="90" y="30" width="9" height="9" fill="#8dc63f"/>
<rect x="100" y="30" width="9" height="9" fill="#8dc63f"/>
<rect x="110" y="30" width="9" height="9" fill="#8dc63f"/>
<rect x="120" y="30" width="9" height="9" fill="#f4f4f5"/>
<rect x="130" y="30" width="9" height="9" fill="#f4f4f5"/>
<rect x="140" y="30" width="9" height="9" fill="#f4f4f5"/>
<rect x="150" y="30" width="9" height="9" fill="#f4f4f5"/>
<rect x="10" y="40" width="9" height="9" fill="#8dc63f"/>
<rect x="20" y="40" width="9" height="9" fill="#6ea832"/>
<rect x="30" y="40" width="9" height="9" fill="#6ea832"/>
<rect x="40" y="40" width="9" height="9" fill="#6ea832"/>
<rect x="50" y="40" width="9" height="9" fill="#6ea832"/>
<rect x="60" y="40" width="9" height="9" fill="#6ea832"/>
<rect x="70" y="40" width="9" height="9" fill="#6ea832"/>
<rect x="80" y="40" width="9" height="9" fill="#6ea832"/>
<rect x="90" y="40" width="9" height="9" fill="#6ea832"/>
<rect x="100" y="40" width="9" height="9" fill="#6ea832"/>
<rect x="110" y="40" width="9" height="9" fill="#f4f4f5"/>
<rect x="120" y="40" width="9" height="9" fill="#f4f4f5"/>
<rect x="130" y="40" width="9" height="9" fill="#f4f4f5"/>
<rect x="140" y="40" width="9" height="9" fill="#f4f4f5"/>
<rect x="150" y="40" width="9" height="9" fill="#f4f4f5"/>
<rect x="160" y="40" width="9" height="9" fill="#f4f4f5"/>
<rect x="10" y="50" width="9" height="9" fill="#8dc63f"/>
<rect x="20" y="50" width="9" height="9" fill="#6ea832"/>
<rect x="30" y="50" width="9" height="9" fill="#f2cf9b"/>
<rect x="40" y="50" width="9" height="9" fill="#f2cf9b"/>
<rect x="50" y="50" width="9" height="9" fill="#f2cf9b"/>
<rect x="60" y="50" width="9" height="9" fill="#f2cf9b"/>
<rect x="70" y="50" width="9" height="9" fill="#f2cf9b"/>
<rect x="80" y="50" width="9" height="9" fill="#f2cf9b"/>
<rect x="90" y="50" width="9" height="9" fill="#f2cf9b"/>
<rect x="100" y="50" width="9" height="9" fill="#f2cf9b"/>
<rect x="110" y="50" width="9" height="9" fill="#f4f4f5"/>
<rect x="120" y="50" width="9" height="9" fill="#f4f4f5"/>
<rect x="130" y="50" width="9" height="9" fill="#18181b"/>
<rect x="140" y="50" width="9" height="9" fill="#f4f4f5"/>
<rect x="150" y="50" width="9" height="9" fill="#f4f4f5"/>
<rect x="160" y="50" width="9" height="9" fill="#f4f4f5"/>
<rect x="10" y="60" width="9" height="9" fill="#8dc63f"/>
<rect x="20" y="60" width="9" height="9" fill="#f2cf9b"/>
<rect x="30" y="60" width="9" height="9" fill="#f2cf9b"/>
<rect x="40" y="60" width="9" height="9" fill="#f2cf9b"/>
<rect x="50" y="60" width="9" height="9" fill="#f2cf9b"/>
<rect x="60" y="60" width="9" height="9" fill="#f2cf9b"/>
<rect x="70" y="60" width="9" height="9" fill="#f2cf9b"/>
<rect x="80" y="60" width="9" height="9" fill="#f2cf9b"/>
<rect x="90" y="60" width="9" height="9" fill="#f2cf9b"/>
<rect x="100" y="60" width="9" height="9" fill="#f2cf9b"/>
<rect x="110" y="60" width="9" height="9" fill="#f4f4f5"/>
<rect x="120" y="60" width="9" height="9" fill="#f4f4f5"/>
<rect x="130" y="60" width="9" height="9" fill="#18181b"/>
<rect x="140" y="60" width="9" height="9" fill="#f4f4f5"/>
<rect x="150" y="60" width="9" height="9" fill="#f4f4f5"/>
<rect x="160" y="60" width="9" height="9" fill="#f4f4f5"/>
<rect x="10" y="70" width="9" height="9" fill="#8dc63f"/>
<rect x="20" y="70" width="9" height="9" fill="#f2cf9b"/>
<rect x="30" y="70" width="9" height="9" fill="#f2cf9b"/>
<rect x="40" y="70" width="9" height="9" fill="#f2cf9b"/>
<rect x="50" y="70" width="9" height="9" fill="#f2cf9b"/>
<rect x="60" y="70" width="9" height="9" fill="#f2cf9b"/>
<rect x="70" y="70" width="9" height="9" fill="#f2cf9b"/>
<rect x="80" y="70" width="9" height="9" fill="#f2cf9b"/>
<rect x="90" y="70" width="9" height="9" fill="#f2cf9b"/>
<rect x="100" y="70" width="9" height="9" fill="#f2cf9b"/>
<rect x="110" y="70" width="9" height="9" fill="#f2cf9b"/>
<rect x="120" y="70" width="9" height="9" fill="#f4f4f5"/>
<rect x="130" y="70" width="9" height="9" fill="#f4f4f5"/>
<rect x="140" y="70" width="9" height="9" fill="#f4f4f5"/>
<rect x="150" y="70" width="9" height="9" fill="#f4f4f5"/>
<rect x="10" y="80" width="9" height="9" fill="#8dc63f"/>
<rect x="20" y="80" width="9" height="9" fill="#f2cf9b"/>
<rect x="30" y="80" width="9" height="9" fill="#f2cf9b"/>
<rect x="40" y="80" width="9" height="9" fill="#d9a869"/>
<rect x="50" y="80" width="9" height="9" fill="#d9a869"/>
<rect x="60" y="80" width="9" height="9" fill="#f2cf9b"/>
<rect x="70" y="80" width="9" height="9" fill="#f2cf9b"/>
<rect x="80" y="80" width="9" height="9" fill="#f2cf9b"/>
<rect x="90" y="80" width="9" height="9" fill="#f2cf9b"/>
<rect x="100" y="80" width="9" height="9" fill="#f2cf9b"/>
<rect x="110" y="80" width="9" height="9" fill="#f2cf9b"/>
<rect x="120" y="80" width="9" height="9" fill="#f2cf9b"/>
<rect x="130" y="80" width="9" height="9" fill="#d9a869"/>
<rect x="140" y="80" width="9" height="9" fill="#d9a869"/>
<rect x="150" y="80" width="9" height="9" fill="#d9a869"/>
<rect x="160" y="80" width="9" height="9" fill="#d9a869"/>
<rect x="170" y="80" width="9" height="9" fill="#d9a869"/>
<rect x="10" y="90" width="9" height="9" fill="#8dc63f"/>
<rect x="20" y="90" width="9" height="9" fill="#f2cf9b"/>
<rect x="30" y="90" width="9" height="9" fill="#f2cf9b"/>
<rect x="40" y="90" width="9" height="9" fill="#d9a869"/>
<rect x="50" y="90" width="9" height="9" fill="#d9a869"/>
<rect x="60" y="90" width="9" height="9" fill="#f2cf9b"/>
<rect x="70" y="90" width="9" height="9" fill="#f2cf9b"/>
<rect x="80" y="90" width="9" height="9" fill="#f2cf9b"/>
<rect x="90" y="90" width="9" height="9" fill="#f2cf9b"/>
<rect x="100" y="90" width="9" height="9" fill="#f2cf9b"/>
<rect x="110" y="90" width="9" height="9" fill="#f2cf9b"/>
<rect x="120" y="90" width="9" height="9" fill="#f2cf9b"/>
<rect x="130" y="90" width="9" height="9" fill="#d9a869"/>
<rect x="140" y="90" width="9" height="9" fill="#d9a869"/>
<rect x="150" y="90" width="9" height="9" fill="#d9a869"/>
<rect x="160" y="90" width="9" height="9" fill="#d9a869"/>
<rect x="170" y="90" width="9" height="9" fill="#d9a869"/>
<rect x="180" y="90" width="9" height="9" fill="#d9a869"/>
<rect x="10" y="100" width="9" height="9" fill="#8dc63f"/>
<rect x="20" y="100" width="9" height="9" fill="#f2cf9b"/>
<rect x="30" y="100" width="9" height="9" fill="#f2cf9b"/>
<rect x="40" y="100" width="9" height="9" fill="#f2cf9b"/>
<rect x="50" y="100" width="9" height="9" fill="#d9a869"/>
<rect x="60" y="100" width="9" height="9" fill="#f2cf9b"/>
<rect x="70" y="100" width="9" height="9" fill="#f2cf9b"/>
<rect x="80" y="100" width="9" height="9" fill="#f2cf9b"/>
<rect x="90" y="100" width="9" height="9" fill="#f2cf9b"/>
<rect x="100" y="100" width="9" height="9" fill="#f2cf9b"/>
<rect x="110" y="100" width="9" height="9" fill="#f2cf9b"/>
<rect x="120" y="100" width="9" height="9" fill="#f2cf9b"/>
<rect x="130" y="100" width="9" height="9" fill="#f2cf9b"/>
<rect x="140" y="100" width="9" height="9" fill="#d9a869"/>
<rect x="150" y="100" width="9" height="9" fill="#d9a869"/>
<rect x="160" y="100" width="9" height="9" fill="#d9a869"/>
<rect x="170" y="100" width="9" height="9" fill="#d9a869"/>
<rect x="10" y="110" width="9" height="9" fill="#8dc63f"/>
<rect x="20" y="110" width="9" height="9" fill="#f2cf9b"/>
<rect x="30" y="110" width="9" height="9" fill="#f2cf9b"/>
<rect x="40" y="110" width="9" height="9" fill="#f2cf9b"/>
<rect x="50" y="110" width="9" height="9" fill="#f2cf9b"/>
<rect x="60" y="110" width="9" height="9" fill="#f2cf9b"/>
<rect x="70" y="110" width="9" height="9" fill="#f2cf9b"/>
<rect x="80" y="110" width="9" height="9" fill="#f2cf9b"/>
<rect x="90" y="110" width="9" height="9" fill="#f2cf9b"/>
<rect x="100" y="110" width="9" height="9" fill="#f2cf9b"/>
<rect x="110" y="110" width="9" height="9" fill="#f2cf9b"/>
<rect x="120" y="110" width="9" height="9" fill="#f2cf9b"/>
<rect x="130" y="110" width="9" height="9" fill="#f2cf9b"/>
<rect x="140" y="110" width="9" height="9" fill="#f2cf9b"/>
<rect x="10" y="120" width="9" height="9" fill="#8dc63f"/>
<rect x="20" y="120" width="9" height="9" fill="#f2cf9b"/>
<rect x="30" y="120" width="9" height="9" fill="#f2cf9b"/>
<rect x="40" y="120" width="9" height="9" fill="#f2cf9b"/>
<rect x="50" y="120" width="9" height="9" fill="#f2cf9b"/>
<rect x="60" y="120" width="9" height="9" fill="#f2cf9b"/>
<rect x="70" y="120" width="9" height="9" fill="#f2cf9b"/>
<rect x="80" y="120" width="9" height="9" fill="#f2cf9b"/>
<rect x="90" y="120" width="9" height="9" fill="#f2cf9b"/>
<rect x="100" y="120" width="9" height="9" fill="#f2cf9b"/>
<rect x="110" y="120" width="9" height="9" fill="#f2cf9b"/>
<rect x="120" y="120" width="9" height="9" fill="#d9a869"/>
<rect x="130" y="120" width="9" height="9" fill="#d9a869"/>
<rect x="140" y="120" width="9" height="9" fill="#f2cf9b"/>
<rect x="10" y="130" width="9" height="9" fill="#8dc63f"/>
<rect x="20" y="130" width="9" height="9" fill="#f2cf9b"/>
<rect x="30" y="130" width="9" height="9" fill="#f2cf9b"/>
<rect x="40" y="130" width="9" height="9" fill="#f2cf9b"/>
<rect x="50" y="130" width="9" height="9" fill="#f2cf9b"/>
<rect x="60" y="130" width="9" height="9" fill="#f2cf9b"/>
<rect x="70" y="130" width="9" height="9" fill="#f2cf9b"/>
<rect x="80" y="130" width="9" height="9" fill="#f2cf9b"/>
<rect x="90" y="130" width="9" height="9" fill="#f2cf9b"/>
<rect x="100" y="130" width="9" height="9" fill="#f2cf9b"/>
<rect x="110" y="130" width="9" height="9" fill="#f2cf9b"/>
<rect x="120" y="130" width="9" height="9" fill="#f2cf9b"/>
<rect x="130" y="130" width="9" height="9" fill="#f2cf9b"/>
<rect x="140" y="130" width="9" height="9" fill="#f2cf9b"/>
<rect x="20" y="140" width="9" height="9" fill="#f2cf9b"/>
<rect x="30" y="140" width="9" height="9" fill="#f2cf9b"/>
<rect x="40" y="140" width="9" height="9" fill="#f2cf9b"/>
<rect x="50" y="140" width="9" height="9" fill="#f2cf9b"/>
<rect x="60" y="140" width="9" height="9" fill="#f2cf9b"/>
<rect x="70" y="140" width="9" height="9" fill="#f2cf9b"/>
<rect x="80" y="140" width="9" height="9" fill="#f2cf9b"/>
<rect x="90" y="140" width="9" height="9" fill="#f2cf9b"/>
<rect x="100" y="140" width="9" height="9" fill="#f2cf9b"/>
<rect x="110" y="140" width="9" height="9" fill="#f2cf9b"/>
<rect x="120" y="140" width="9" height="9" fill="#f2cf9b"/>
<rect x="130" y="140" width="9" height="9" fill="#f2cf9b"/>
<rect x="30" y="150" width="9" height="9" fill="#f2cf9b"/>
<rect x="40" y="150" width="9" height="9" fill="#f2cf9b"/>
<rect x="50" y="150" width="9" height="9" fill="#f2cf9b"/>
<rect x="60" y="150" width="9" height="9" fill="#f2cf9b"/>
<rect x="70" y="150" width="9" height="9" fill="#f2cf9b"/>
<rect x="80" y="150" width="9" height="9" fill="#f2cf9b"/>
<rect x="90" y="150" width="9" height="9" fill="#f2cf9b"/>
<rect x="100" y="150" width="9" height="9" fill="#f2cf9b"/>
<rect x="110" y="150" width="9" height="9" fill="#f2cf9b"/>
<rect x="120" y="150" width="9" height="9" fill="#f2cf9b"/>
<rect x="50" y="160" width="9" height="9" fill="#f2cf9b"/>
<rect x="60" y="160" width="9" height="9" fill="#f2cf9b"/>
<rect x="70" y="160" width="9" height="9" fill="#f2cf9b"/>
<rect x="80" y="160" width="9" height="9" fill="#f2cf9b"/>
<rect x="90" y="160" width="9" height="9" fill="#f2cf9b"/>
<rect x="100" y="160" width="9" height="9" fill="#f2cf9b"/>
<rect x="50" y="170" width="9" height="9" fill="#f2cf9b"/>
<rect x="60" y="170" width="9" height="9" fill="#f2cf9b"/>
<rect x="70" y="170" width="9" height="9" fill="#f2cf9b"/>
<rect x="80" y="170" width="9" height="9" fill="#f2cf9b"/>
<rect x="90" y="170" width="9" height="9" fill="#f2cf9b"/>
<rect x="100" y="170" width="9" height="9" fill="#f2cf9b"/>
<rect x="30" y="180" width="9" height="9" fill="#e8e2d4"/>
<rect x="40" y="180" width="9" height="9" fill="#e8e2d4"/>
<rect x="50" y="180" width="9" height="9" fill="#f2cf9b"/>
<rect x="60" y="180" width="9" height="9" fill="#f2cf9b"/>
<rect x="70" y="180" width="9" height="9" fill="#f2cf9b"/>
<rect x="80" y="180" width="9" height="9" fill="#f2cf9b"/>
<rect x="90" y="180" width="9" height="9" fill="#f2cf9b"/>
<rect x="100" y="180" width="9" height="9" fill="#f2cf9b"/>
<rect x="110" y="180" width="9" height="9" fill="#e8e2d4"/>
<rect x="120" y="180" width="9" height="9" fill="#e8e2d4"/>
<rect x="20" y="190" width="9" height="9" fill="#e8e2d4"/>
<rect x="30" y="190" width="9" height="9" fill="#e8e2d4"/>
<rect x="40" y="190" width="9" height="9" fill="#e8e2d4"/>
<rect x="50" y="190" width="9" height="9" fill="#e8e2d4"/>
<rect x="60" y="190" width="9" height="9" fill="#e8e2d4"/>
<rect x="70" y="190" width="9" height="9" fill="#e8e2d4"/>
<rect x="80" y="190" width="9" height="9" fill="#e8e2d4"/>
<rect x="90" y="190" width="9" height="9" fill="#e8e2d4"/>
<rect x="100" y="190" width="9" height="9" fill="#e8e2d4"/>
<rect x="110" y="190" width="9" height="9" fill="#e8e2d4"/>
<rect x="120" y="190" width="9" height="9" fill="#e8e2d4"/>
<rect x="130" y="190" width="9" height="9" fill="#e8e2d4"/>
<rect x="140" y="190" width="9" height="9" fill="#e8e2d4"/>
<rect x="10" y="200" width="9" height="9" fill="#e8e2d4"/>
<rect x="20" y="200" width="9" height="9" fill="#e8e2d4"/>
<rect x="30" y="200" width="9" height="9" fill="#e8e2d4"/>
<rect x="40" y="200" width="9" height="9" fill="#e8e2d4"/>
<rect x="50" y="200" width="9" height="9" fill="#e8e2d4"/>
<rect x="60" y="200" width="9" height="9" fill="#e8e2d4"/>
<rect x="70" y="200" width="9" height="9" fill="#e8e2d4"/>
<rect x="80" y="200" width="9" height="9" fill="#e8e2d4"/>
<rect x="90" y="200" width="9" height="9" fill="#e8e2d4"/>
<rect x="100" y="200" width="9" height="9" fill="#e8e2d4"/>
<rect x="110" y="200" width="9" height="9" fill="#e8e2d4"/>
<rect x="120" y="200" width="9" height="9" fill="#e8e2d4"/>
<rect x="130" y="200" width="9" height="9" fill="#e8e2d4"/>
<rect x="140" y="200" width="9" height="9" fill="#e8e2d4"/>
<rect x="150" y="200" width="9" height="9" fill="#e8e2d4"/>
<rect x="10" y="210" width="9" height="9" fill="#e8e2d4"/>
<rect x="20" y="210" width="9" height="9" fill="#e8e2d4"/>
<rect x="30" y="210" width="9" height="9" fill="#e8e2d4"/>
<rect x="40" y="210" width="9" height="9" fill="#e8e2d4"/>
<rect x="50" y="210" width="9" height="9" fill="#e8e2d4"/>
<rect x="60" y="210" width="9" height="9" fill="#e8e2d4"/>
<rect x="70" y="210" width="9" height="9" fill="#e8e2d4"/>
<rect x="80" y="210" width="9" height="9" fill="#e8e2d4"/>
<rect x="90" y="210" width="9" height="9" fill="#e8e2d4"/>
<rect x="100" y="210" width="9" height="9" fill="#e8e2d4"/>
<rect x="110" y="210" width="9" height="9" fill="#e8e2d4"/>
<rect x="120" y="210" width="9" height="9" fill="#e8e2d4"/>
<rect x="130" y="210" width="9" height="9" fill="#e8e2d4"/>
<rect x="140" y="210" width="9" height="9" fill="#e8e2d4"/>
<rect x="150" y="210" width="9" height="9" fill="#e8e2d4"/>
</g>
<text x="320" y="86" fill="#8dc63f" font-size="15" font-weight="bold" filter="url(#g)">davi@alvarenga</text>
<text x="320" y="104" fill="#52525b" font-size="13">─────────────────────</text>
<text x="320" y="132" fill="#a1a1aa" font-size="13">OS</text><text x="406" y="132" fill="#52525b" font-size="13">:</text><text x="424" y="132" fill="#d4d4d8" font-size="13">Windows 11 / Linux</text>
<text x="320" y="156" fill="#a1a1aa" font-size="13">Host</text><text x="406" y="156" fill="#52525b" font-size="13">:</text><text x="424" y="156" fill="#d4d4d8" font-size="13">NetSupre — técnico de suporte e redes (estágio)</text>
<text x="320" y="180" fill="#a1a1aa" font-size="13">Kernel</text><text x="406" y="180" fill="#52525b" font-size="13">:</text><text x="424" y="180" fill="#d4d4d8" font-size="13">redes · automação · cibersegurança</text>
<text x="320" y="204" fill="#a1a1aa" font-size="13">Uptime</text><text x="406" y="204" fill="#52525b" font-size="13">:</text><text x="424" y="204" fill="#d4d4d8" font-size="13">2 anos, 5 meses codando</text>
<text x="320" y="228" fill="#a1a1aa" font-size="13">Shell</text><text x="406" y="228" fill="#52525b" font-size="13">:</text><text x="424" y="228" fill="#d4d4d8" font-size="13">Bash, PowerShell</text>
<text x="320" y="252" fill="#a1a1aa" font-size="13">IDE</text><text x="406" y="252" fill="#52525b" font-size="13">:</text><text x="424" y="252" fill="#d4d4d8" font-size="13">VS Code</text>
<text x="320" y="276" fill="#a1a1aa" font-size="13">Palette</text><text x="406" y="276" fill="#52525b" font-size="13">:</text><text x="424" y="276" fill="#d4d4d8" font-size="13">Ferb Green / Void</text>
<rect x="320" y="298" width="19" height="19" fill="#0a0a0a" stroke="#27272a"/><rect x="346" y="298" width="19" height="19" fill="#27272a" stroke="#27272a"/><rect x="372" y="298" width="19" height="19" fill="#52525b" stroke="#27272a"/><rect x="398" y="298" width="19" height="19" fill="#6ea832" stroke="#27272a"/><rect x="424" y="298" width="19" height="19" fill="#8dc63f" stroke="#27272a"/><rect x="450" y="298" width="19" height="19" fill="#e4e4e7" stroke="#27272a"/>
<text x="320" y="338" fill="#a1a1aa" font-size="13">~/davi $</text>
<rect x="396" y="326" width="9" height="15" fill="#d4d4d8" class="blink"/>
</svg>
